<svg id="Layer_1_copy" data-name="Layer 1 copy" xmlns="http://www.w3.org/2000/svg" viewBox="0 0 257.14 48.56"><defs><style>.cls-1{fill:#339b47;}.cls-2{fill:#fff;}.cls-3{fill:#b1b3b6;}</style></defs><title>1SG_LOGO_HORIZONTAL_CMYK</title><rect class="cls-1" x="5.11" y="5.11" width="246.93" height="38.35"/><path class="cls-2" d="M74.32,68.5l-4.39,1L68.31,62.8l8.05-2.2h6.82V87.77H74.32V68.5Z" transform="translate(-57.17 -49.96)"/><path class="cls-2" d="M85.57,74.36V74.28c0-7.44,4.85-14.06,13-14.06s12.95,6.55,12.95,14v0.08c0,7.44-4.85,14.06-13,14.06S85.57,81.79,85.57,74.36Zm17,0V74.28c0-3.7-1.66-6.24-4.08-6.24s-4,2.47-4,6.17v0.08c0,3.7,1.66,6.24,4.08,6.24S102.6,78.06,102.6,74.36Z" transform="translate(-57.17 -49.96)"/><path class="cls-2" d="M113.31,74.36V74.28c0-7.44,4.85-14.06,13-14.06s12.95,6.55,12.95,14v0.08c0,7.44-4.85,14.06-13,14.06S113.31,81.79,113.31,74.36Zm17,0V74.28c0-3.7-1.66-6.24-4.08-6.24s-4,2.47-4,6.17v0.08c0,3.7,1.66,6.24,4.08,6.24S130.33,78.06,130.33,74.36Z" transform="translate(-57.17 -49.96)"/><path class="cls-2" d="M141.7,68V67.92a7.36,7.36,0,1,1,14.72,0V68A7.36,7.36,0,1,1,141.7,68Zm25.12-7.2h5.82L160.5,75.63l-9.75,12.14h-5.82l11.9-14.53Zm-15.76,7.13c0-1.62-.92-2.66-2-2.66s-2,1-2,2.66V68c0,1.62,1,2.66,2,2.66s2-1,2-2.66V67.92Zm10.09,12.71V80.56a7.36,7.36,0,1,1,14.72,0v0.08A7.36,7.36,0,1,1,161.15,80.64Zm9.36,0V80.56c0-1.62-.92-2.66-2-2.66s-2,1-2,2.66v0.08c0,1.62,1,2.66,2,2.66S170.52,82.3,170.52,80.64Z" transform="translate(-57.17 -49.96)"/><path class="cls-2" d="M182.75,69.88l1.91-2.27a6.12,6.12,0,0,0,3.74,1.25c0.64,0,.92-0.17.92-0.46v0c0-.31-0.33-0.47-1.48-0.7-2.4-.49-4.5-1.17-4.5-3.43v0c0-2,1.59-3.6,4.53-3.6a7.39,7.39,0,0,1,4.82,1.46l-1.74,2.41a5.6,5.6,0,0,0-3.2-1.05c-0.53,0-.78.18-0.78,0.44v0c0,0.29.29,0.47,1.42,0.69,2.73,0.5,4.56,1.3,4.56,3.45v0c0,2.24-1.85,3.62-4.71,3.62A8.25,8.25,0,0,1,182.75,69.88Z" transform="translate(-57.17 -49.96)"/><path class="cls-2" d="M197.57,60.73h3.54l4.5,10.76h-3.88l-0.56-1.43h-3.74l-0.55,1.43h-3.81Zm2.72,6.79-1-2.59-1,2.59h2Z" transform="translate(-57.17 -49.96)"/><path class="cls-2" d="M207.71,63.83h-3.14v-3h9.86v3h-3.14v7.66h-3.57V63.83Z" transform="translate(-57.17 -49.96)"/><path class="cls-2" d="M215.57,60.81h3.57V71.49h-3.57V60.81Z" transform="translate(-57.17 -49.96)"/><path class="cls-2" d="M219.81,69.88l1.91-2.27a6.12,6.12,0,0,0,3.74,1.25c0.64,0,.92-0.17.92-0.46v0c0-.31-0.33-0.47-1.48-0.7-2.4-.49-4.5-1.17-4.5-3.43v0c0-2,1.59-3.6,4.53-3.6a7.39,7.39,0,0,1,4.82,1.46L228,64.48a5.6,5.6,0,0,0-3.2-1.05c-0.53,0-.78.18-0.78,0.44v0c0,0.29.29,0.47,1.42,0.69,2.73,0.5,4.56,1.3,4.56,3.45v0c0,2.24-1.85,3.62-4.71,3.62A8.25,8.25,0,0,1,219.81,69.88Z" transform="translate(-57.17 -49.96)"/><path class="cls-2" d="M231.13,60.81h8.94v3.05H234.7v1.36h5V68h-5v3.49h-3.57V60.81Z" transform="translate(-57.17 -49.96)"/><path class="cls-2" d="M243.72,60.73h3.54l4.5,10.76h-3.88l-0.56-1.43h-3.74L243,71.49h-3.81Zm2.72,6.79-1-2.59-1,2.59h2Z" transform="translate(-57.17 -49.96)"/><path class="cls-2" d="M251.57,66.18v0a5.52,5.52,0,0,1,5.68-5.57,5.24,5.24,0,0,1,4.84,2.78l-2.95,1.72a2.07,2.07,0,0,0-1.94-1.3,2.12,2.12,0,0,0-2,2.33v0a2.11,2.11,0,0,0,2,2.36,2.19,2.19,0,0,0,2-1.34l2.95,1.66A5.66,5.66,0,0,1,251.57,66.18Z" transform="translate(-57.17 -49.96)"/><path class="cls-2" d="M265.88,63.83h-3.14v-3h9.86v3h-3.14v7.66h-3.57V63.83Z" transform="translate(-57.17 -49.96)"/><path class="cls-2" d="M273.74,60.81h3.57V71.49h-3.57V60.81Z" transform="translate(-57.17 -49.96)"/><path class="cls-2" d="M278.62,66.18v0a5.84,5.84,0,0,1,11.66,0v0A5.84,5.84,0,0,1,278.62,66.18Zm8.06,0v0a2.29,2.29,0,0,0-2.24-2.41,2.25,2.25,0,0,0-2.21,2.38v0a2.28,2.28,0,0,0,2.24,2.41A2.25,2.25,0,0,0,286.68,66.18Z" transform="translate(-57.17 -49.96)"/><path class="cls-2" d="M291.56,60.81h3.34l3.8,4.71V60.81h3.54V71.49h-3.17l-4-4.93v4.93h-3.54V60.81Z" transform="translate(-57.17 -49.96)"/><path class="cls-2" d="M182.46,81.52v0a6.57,6.57,0,0,1,6.92-6.54,7.78,7.78,0,0,1,5.25,1.9l-2.35,2.83a4.21,4.21,0,0,0-2.78-1.09,2.8,2.8,0,0,0-2.82,3v0a2.86,2.86,0,0,0,3,3,2.77,2.77,0,0,0,1.43-.29V83H189V80.34H195v5.81A8.69,8.69,0,0,1,189.5,88C185.59,88,182.46,85.41,182.46,81.52Z" transform="translate(-57.17 -49.96)"/><path class="cls-2" d="M196.51,82.13V75.21h4.27v6.87c0,1.56.81,2.22,1.94,2.22a1.83,1.83,0,0,0,1.94-2.13v-7h4.27V82c0,4.29-2.49,6-6.24,6S196.51,86.29,196.51,82.13Z" transform="translate(-57.17 -49.96)"/><path class="cls-2" d="M214.44,75.12h4.16l5.29,12.64h-4.55l-0.66-1.69h-4.39l-0.65,1.69h-4.48Zm3.19,8-1.15-3-1.15,3h2.29Z" transform="translate(-57.17 -49.96)"/><path class="cls-2" d="M224.76,75.21h6.13c2.22,0,3.64.56,4.52,1.43a3.94,3.94,0,0,1,1.15,3v0a4.06,4.06,0,0,1-2.47,3.84L237,87.76h-4.79l-2.37-3.59H229v3.59h-4.2V75.21Zm6,6c1,0,1.61-.45,1.61-1.22v0c0-.81-0.63-1.2-1.6-1.2H229v2.46h1.81Z" transform="translate(-57.17 -49.96)"/><path class="cls-2" d="M241.86,75.12H246l5.29,12.64h-4.55l-0.66-1.69H241.7l-0.65,1.69h-4.48Zm3.19,8-1.15-3-1.15,3h2.29Z" transform="translate(-57.17 -49.96)"/><path class="cls-2" d="M252.19,75.21h3.93l4.46,5.54V75.21h4.16V87.76H261L256.35,82v5.79h-4.16V75.21Z" transform="translate(-57.17 -49.96)"/><path class="cls-2" d="M269.74,78.76H266V75.21h11.58v3.55h-3.69v9h-4.2v-9Z" transform="translate(-57.17 -49.96)"/><path class="cls-2" d="M278.93,75.21h10.7v3.44h-6.58v1.27h6.13v3h-6.13v1.36h6.67v3.44H278.93V75.21Z" transform="translate(-57.17 -49.96)"/><path class="cls-2" d="M291.21,75.21h10.7v3.44h-6.58v1.27h6.13v3h-6.13v1.36H302v3.44H291.21V75.21Z" transform="translate(-57.17 -49.96)"/><path class="cls-3" d="M311.31,50H57.17V98.53H314.31V50h-3Zm0.5,3.5V96H59.67V52.46H311.81v1Z" transform="translate(-57.17 -49.96)"/><path class="cls-2" d="M310.81,52.46H59.67V96H311.81V52.46h-1ZM62.27,55.07H309.21V93.42H62.27V55.07Z" transform="translate(-57.17 -49.96)"/></svg>